# xmcd CD database file
#
# Track frame offsets:
#	150
#	24047
#	41645
#
# Disc length: 830 seconds
#
# Revision: 0
# Processed by: cddbd v1.5PL3 Copyright (c) Steve Scherf et al.
# Submitted via: CDex 1.50Beta7
#
DISCID=16033c03
DTITLE=Capsule - プラスチックガール
DYEAR=2002
DGENRE=JPop
TTITLE0=プラスチックガール
TTITLE1=おやすみ
TTITLE2=プラスチックガール[remix]
EXTD=YEAR: 2002
EXTT0=
EXTT1=
EXTT2=
PLAYORDER=
